<?xml version="1.0" encoding="utf-8"?>
<!-- Generator: Adobe Illustrator 15.1.0, SVG Export Plug-In . SVG Version: 6.00 Build 0)  -->
<!DOCTYPE svg PUBLIC "-//W3C//DTD SVG 1.1//EN" "http://www.w3.org/Graphics/SVG/1.1/DTD/svg11.dtd">
<svg version="1.1" id="Calque_2" xmlns="http://www.w3.org/2000/svg" xmlns:xlink="http://www.w3.org/1999/xlink" x="0px" y="0px"
	 width="595.28px" height="841.89px" viewBox="0 0 595.28 841.89" enable-background="new 0 0 595.28 841.89" xml:space="preserve">
<path fill="#D1810F" stroke="#000000" stroke-miterlimit="10" d="M256.25,407.479c0,0-10.874-3-11-2.229
	c-2.625,17.125,8,17.5,8.625,18c-2.75,17.5,7.875,20.875,7.875,20.875s6.375,13,21.75,13s46.125-3.684,46.125-3.684
	s-7.53,1.146,4.625,0s16.18-4.7,16.875-5.066C364,441.625,353.75,425,353.75,425s9.5-19.125,5.5-19.75l-8.25,4l-4.962-19.089
	L335.5,341.763l-77.241,17.526L256.25,407.479z"/>
<path fill="#D81029" stroke="#000000" stroke-miterlimit="10" d="M246.659,452.964l38.716-19.651l41.277-5.812l21.973,21.062
	l-8.592,14.449l-6.533-2.001l3.125-14.136l-10-4.369l3,13.307l-45.062,7.199l-0.812-12.387l-34.562,9.438
	C249.188,460.062,248.817,453.615,246.659,452.964z"/>
<path fill="#EFD8DE" stroke="#000000" stroke-miterlimit="10" d="M331.312,461.334c0,0,8.834-1.646,12.354,5.958
	s-6.399,10.197-5.254,10.052"/>
<path fill="#EFD8DE" stroke="#000000" stroke-miterlimit="10" d="M262.833,401c0,0,4,34.048,42.417,29.381
	c35.917-4.167,32.345-43.47,32.345-43.47l-3.905-8.436c0,0-17.564-0.225-21.522-23.225c-2.532,6.189-7.143,23.203-24.78,26.477
	c-9.261,1.352-11.762,3.648-20.137-1.602C269.875,391,262.833,401,262.833,401z"/>
<path fill="none" stroke="#000000" stroke-miterlimit="10" d="M341.5,378.25"/>
<polygon fill="#911824" stroke="#000000" stroke-miterlimit="10" points="284.562,463.012 276.998,494.25 341.5,486 
	329.625,455.812 "/>
<path fill="none" stroke="#000000" stroke-miterlimit="10" d="M281,382.75"/>
<path fill="none" stroke="#000000" stroke-miterlimit="10" d="M267.25,380.777"/>
<path fill="none" stroke="#000000" stroke-miterlimit="10" d="M341.5,388.25"/>
<path fill="none" stroke="#000000" stroke-miterlimit="10" d="M341.5,378.25"/>
<g>
	<path fill="#DDBFC6" stroke="#000000" stroke-miterlimit="10" d="M312.167,356.062"/>
	<g>
		<path fill="#DDBFC6" stroke="#000000" stroke-miterlimit="10" d="M333.689,378.475"/>
	</g>
</g>
<polygon fill="#D81029" stroke="#000000" stroke-miterlimit="10" points="312.75,319.375 265.213,330.374 263.417,314.035 
	308.641,304.703 "/>
<polygon fill="#911824" stroke="#000000" stroke-miterlimit="10" points="317.826,328.624 265.875,340.5 265.213,330.374 
	315.13,318.995 "/>
<path fill="#EAE8E8" stroke="#000000" stroke-miterlimit="10" d="M275.75,408.5l50.875-7.5c0,0,1.75,16.89-22.75,19.945
	S275.75,408.5,275.75,408.5z"/>
<path fill="#EFD8DE" stroke="#000000" stroke-miterlimit="10" d="M296.667,432c0,0-0.791,10.829,8.5,10.498
	c11.291-1.081,8.333-12.998,8.333-12.998"/>
<path fill="#EFD8DE" stroke="#000000" stroke-miterlimit="10" d="M286.182,493.392c0,0-2.47,16.929-1.932,17.608
	c3.583,2.083,13.15,0.75,13.15,0.75s5.274-16.247,4.948-20.31"/>
<polyline fill="#EFD8DE" stroke="#000000" stroke-miterlimit="10" points="311.75,490.306 320.25,511.75 332.167,507.583 
	328.805,488.248 "/>
<path fill="#5C484B" stroke="#000000" stroke-miterlimit="10" d="M293.268,432.201l0.649,33.132c0,0-2.417-0.667-5.25,1.25
	l-1.28-33.432"/>
<path fill="#5C484B" stroke="#000000" stroke-miterlimit="10" d="M316.75,428.933l2.26,32.662c0,0,2.303-1.157,4.283-0.261
	c0.798,0.838-1.23-33.459-1.23-33.459"/>
<path fill="#105888" stroke="#000000" stroke-miterlimit="10" d="M280.081,394.717c0-1.703-0.602-2.179-3.083-3.084
	c-1.669,0.492-3.083,1.381-3.083,3.084c0,1.703,1.38,3.7,3.083,3.7S280.081,396.42,280.081,394.717z"/>
<path fill="#105888" stroke="#000000" stroke-miterlimit="10" d="M328.25,390.161c0-1.795-1.043-3.25-2.838-3.25
	s-2.912,1.455-2.912,3.25s1.117,3.25,2.912,3.25S328.25,391.956,328.25,390.161z"/>
<path fill="none" stroke="#000000" stroke-miterlimit="10" d="M335.5,453.441"/>
<path fill="none" stroke="#000000" stroke-miterlimit="10" d="M328.728,452.482"/>
<path fill="#603F3E" stroke="#000000" stroke-miterlimit="10" d="M271.333,536.668c0,0,19.75,0.084,22.417,0
	c-0.667-9.834,5.917-24.001,4.333-24.084s-13.916,0.167-15.083-0.834l-0.333,17.668C282.667,529.418,273,533.585,271.333,536.668z"
	/>
<path fill="#603F3E" stroke="#000000" stroke-miterlimit="10" d="M318.417,513.418L325,537.084c0,0,20.166,0.492,21-0.379
	s-12.166-5.871-12.166-5.871s2.576-23.843,1.333-23.416s-16.75,5.75-16.75,5.75"/>
<polyline fill="#474747" stroke="#000000" stroke-miterlimit="10" points="238.235,407.082 235.208,397.25 226.083,398.833 
	227.156,409.797 "/>
<polyline fill="#D81029" stroke="#000000" stroke-miterlimit="10" points="241.562,363.078 362,335.75 319.442,328.005 
	265.875,340.5 241.562,363.078 "/>
<polyline fill="none" stroke="#000000" stroke-miterlimit="10" points="227.156,409.797 229,409.333 236.356,407.479 
	238.235,407.082 "/>
<path fill="#CECECE" stroke="#000000" stroke-miterlimit="10" d="M294.875,468.499c0,2.036-1.156,3.126-3.25,3.126
	s-3.25-0.644-3.25-2.68c0-2.037,1.156-3.688,3.25-3.688S294.875,466.462,294.875,468.499z"/>
<path fill="#CECECE" stroke="#000000" stroke-miterlimit="10" d="M320.521,461.106c2.166-0.606,4.072,1.833,4.072,2.862
	c0,1.792-1.765,4.125-3.594,4.125s-3.562-1.677-3.562-3.469C317.438,463.524,318.981,461.184,320.521,461.106"/>
<path fill="#888989" stroke="#000000" stroke-miterlimit="10" d="M247.917,386.58l-10-36.747c0,0-1.75-1.833-2.667,0.417
	c-0.583,1.25,8.333,33.333,8.333,33.333s-3.917,4.917-10.417,6.577c0,0-10.083-36.577-11-37.244s-2.083-0.5-2.5,0.667
	s7.167,36.167,8.25,38.05c-1.583,1.45-9.345,3.772-10,1.777c-0.583-1.777-10.5-34.911-10.5-34.911s-1-2.167-1.833,0.333
	c0.333,1,6.801,38.309,7.75,39.583c2.612,3.507,12.75,0.417,12.75,0.417l9.125-1.583C235.208,397.25,246.448,393.248,247.917,386.58
	"/>
<path fill="#3E1011" stroke="#000000" stroke-miterlimit="10" d="M256.833,533.499l-20.478-126.02L229,409.333l21.833,124.166
	C250.833,533.499,254.833,538.499,256.833,533.499z"/>
<path fill="#EFD8DE" stroke="#000000" stroke-miterlimit="10" d="M249.188,459.062c0,3.912-3.463,6.938-7.375,6.938s-8-2.9-8-6.812
	s4.088-8.688,8-8.688S249.188,455.15,249.188,459.062z"/>
<path fill="#F3A70F" stroke="#000000" stroke-miterlimit="10" d="M333.689,378.475c0.061,9.275,12.349,11.686,12.349,11.686
	L335.5,341.763l-77.241,17.526l-1.425,45.96c14.917-8.898,10.417-25.125,10.417-25.125s5.125,4.125,15.25,2.625
	c21.75-2.75,29.667-26.688,29.667-26.688S314.754,377.7,333.689,378.475z"/>
<line fill="none" stroke="#000000" stroke-miterlimit="10" x1="341.5" y1="378.25" x2="333.689" y2="378.475"/>
</svg>
