<?xml version="1.0" encoding="utf-8"?>
<!-- Generator: Adobe Illustrator 15.1.0, SVG Export Plug-In . SVG Version: 6.00 Build 0)  -->
<!DOCTYPE svg PUBLIC "-//W3C//DTD SVG 1.1//EN" "http://www.w3.org/Graphics/SVG/1.1/DTD/svg11.dtd">
<svg version="1.1" id="Calque_2" xmlns="http://www.w3.org/2000/svg" xmlns:xlink="http://www.w3.org/1999/xlink" x="0px" y="0px"
	 width="595.28px" height="841.89px" viewBox="0 0 595.28 841.89" enable-background="new 0 0 595.28 841.89" xml:space="preserve">
<path fill="none" stroke="#000000" stroke-miterlimit="10" d="M341.5,378.25"/>
<path fill="none" stroke="#000000" stroke-miterlimit="10" d="M281,382.75"/>
<path fill="none" stroke="#000000" stroke-miterlimit="10" d="M267.25,380.916"/>
<path fill="none" stroke="#000000" stroke-miterlimit="10" d="M341.5,388.25"/>
<path fill="none" stroke="#000000" stroke-miterlimit="10" d="M337.375,385.75c7.875,34.5-31.625,42.75-31.625,42.75
	s-39.75,6.25-43-28.75"/>
<path fill="none" stroke="#000000" stroke-miterlimit="10" d="M259.75,402.5c6.75-4.25,9.75-19.375,7.5-21.584"/>
<path fill="none" stroke="#000000" stroke-miterlimit="10" d="M267.25,380.916c0,0-2.508,1.829,13.75,1.834
	c20.905,0.007,30.75-26.688,30.75-26.688"/>
<path fill="none" stroke="#000000" stroke-miterlimit="10" d="M341.5,378.25"/>
<path fill="none" stroke="#000000" stroke-miterlimit="10" d="M311.75,356.062"/>
<g>
	<path fill="none" stroke="#000000" stroke-miterlimit="10" d="M333.25,378"/>
	<path fill="none" stroke="#000000" stroke-miterlimit="10" d="M311.75,356.062c9.894,28.227,29.75,22.188,29.75,22.188"/>
	<path fill="none" stroke="#000000" stroke-miterlimit="10" d="M333.25,378c1,8.125,8.25,10.25,8.25,10.25"/>
</g>
<path fill="none" stroke="#000000" stroke-miterlimit="10" d="M262,444.5c0,0-11.25-3.125-7.875-21.125
	c-7.346-1.113-11.364-13.766-8.816-17.375c1.941-2.75,5.066-0.75,10.941,1.341c3.421,1.218,1.962-47.505,1.962-47.505l77.238-17.925
	c5.022,6.099,16.55,65.338,15.3,67.963c2.484-0.811,5.399-4.12,8.25-4.375c0.634,0.252,0.625,14.625-5.5,19.25
	c0,0,13.417,19.25-4.461,23.214c0,0-19.735-21.651-22.414-21.214s-41.375,6.75-41.375,6.75L262,444.5z"/>
<polygon fill="none" stroke="#000000" stroke-miterlimit="10" points="312.75,319.375 265.213,330.374 263.417,314.035 
	308.641,304.703 "/>
<polygon fill="none" stroke="#000000" stroke-miterlimit="10" points="317.826,328.624 265.875,340.5 265.213,330.374 
	315.13,318.995 "/>
<path fill="none" stroke="#000000" stroke-miterlimit="10" d="M275.75,408.5l50.875-7.5c0,0,1.75,16.89-22.75,19.945
	S275.75,408.5,275.75,408.5z"/>
<g>
	<path fill="none" stroke="#000000" stroke-miterlimit="10" d="M249.375,459.75l22.666-6.121l11.584-3.129l0.625,6.539l0.562,5.398
		L277,494.5l65.25-7.875l-3.837-9.281l-7.101-16.01l-1.75-5.146c0,0-0.206-1.55-0.835-3.705c-1.174-4.027-2.938-9.916-1.353-9.982
		c2.625-0.109,9.263,5.184,9.263,5.184l-1.138,5.758l-1.875,7.371c3.25-0.125,6.5,1.938,6.5,1.938l8.914-14.786"/>
	<line fill="none" stroke="#000000" stroke-miterlimit="10" x1="284.812" y1="462.438" x2="329.562" y2="456.188"/>
</g>
<path fill="none" stroke="#000000" stroke-miterlimit="10" d="M296.667,432c0,0-0.791,10.829,8.5,10.498
	c11.291-1.081,8.333-12.998,8.333-12.998"/>
<path fill="none" stroke="#000000" stroke-miterlimit="10" d="M286.182,493.392c0,0-2.47,16.929-1.932,17.608
	c3.583,2.083,13.15,0.75,13.15,0.75s5.274-16.247,4.948-20.31"/>
<polyline fill="none" stroke="#000000" stroke-miterlimit="10" points="311.75,490.306 320.25,511.75 332.167,507.583 
	328.805,488.248 "/>
<path fill="none" stroke="#000000" stroke-miterlimit="10" d="M292.75,432.917l1.167,32.416c0,0-2.417-0.667-5.25,1.25l-1.28-33.432
	"/>
<path fill="none" stroke="#000000" stroke-miterlimit="10" d="M316.75,429.5l2.26,32.095c0,0,2.303-1.157,4.283-0.261
	c0.798,0.838-1.334-32.834-1.334-32.834"/>
<path fill="none" stroke="#000000" stroke-miterlimit="10" d="M280.081,394.717c0-1.703-0.602-2.179-3.083-3.084
	c-1.669,0.492-3.083,1.381-3.083,3.084c0,1.703,1.38,3.7,3.083,3.7S280.081,396.42,280.081,394.717z"/>
<path fill="none" stroke="#000000" stroke-miterlimit="10" d="M328.25,390.161c0-1.795-1.043-3.25-2.838-3.25
	s-2.912,1.455-2.912,3.25s1.117,3.25,2.912,3.25S328.25,391.956,328.25,390.161z"/>
<path fill="none" stroke="#000000" stroke-miterlimit="10" d="M272.041,453.629c0,0,5.375,4.16,12.209,3.41"/>
<path fill="none" stroke="#000000" stroke-miterlimit="10" d="M328.728,452.482c0,0,5.689,1.459,6.772,0.959"/>
<path fill="none" stroke="#000000" stroke-miterlimit="10" d="M271.333,536.668c0,0,19.75,0.084,22.417,0
	c-0.667-9.834,5.917-24.001,4.333-24.084s-13.916,0.167-15.083-0.834l-0.333,17.668C282.667,529.418,273,533.585,271.333,536.668z"
	/>
<path fill="none" stroke="#000000" stroke-miterlimit="10" d="M318.417,513.418L325,537.084c0,0,20.166,0.492,21-0.379
	s-12.166-5.871-12.166-5.871s2.576-23.843,1.333-23.416s-16.75,5.75-16.75,5.75"/>
<polyline fill="none" stroke="#000000" stroke-miterlimit="10" points="238.235,407.082 235.208,397.25 226.083,398.833 
	227.156,409.797 "/>
<path fill="none" stroke="#000000" stroke-miterlimit="10" d="M362,335.75l-42.558-7.745L265.875,340.5l-23.863,22.619
	c-2.015-6.593-4.095-13.285-4.095-13.285s-1.75-1.833-2.667,0.417c-0.583,1.25,8.333,33.333,8.333,33.333s-3.917,4.917-10.417,6.577
	c0,0-10.083-36.577-11-37.244s-2.083-0.5-2.5,0.667s7.167,36.167,8.25,38.05c-1.583,1.45-9.345,3.772-10,1.777
	c-0.583-1.777-10.5-34.911-10.5-34.911s-1-2.167-1.833,0.333c0.333,1,6.801,38.309,7.75,39.583c2.612,3.507,12.75,0.417,12.75,0.417
	l9.125-1.583c0,0,11.24-3.671,12.708-10.339c0.471-2.14-2.984-14.139-5.905-23.792L362,335.75z"/>
<line fill="none" stroke="#000000" stroke-miterlimit="10" x1="236.356" y1="407.479" x2="238.235" y2="407.082"/>
<line fill="none" stroke="#000000" stroke-miterlimit="10" x1="227.156" y1="409.797" x2="229" y2="409.333"/>
<path fill="none" stroke="#000000" stroke-miterlimit="10" d="M257,534l-11.668-69.045c2.376-1.172,4.043-3.656,4.043-6.955
	c0-3.729-3.121-6.639-6.366-7.477l-6.653-43.044L229,409.333l7.878,42.558c-1.78,1.638-3.128,4.527-3.128,7.421
	c0,3.285,2.297,5.301,5.505,6.049L251,534H257z"/>
<path fill="none" stroke="#000000" stroke-miterlimit="10" d="M236.878,451.892c0,0,3.006-2.056,6.131-1.368"/>
<path fill="none" stroke="#000000" stroke-miterlimit="10" d="M239.255,465.361c0,0,3.686,0.825,6.077-0.406"/>
<line fill="none" stroke="#000000" stroke-miterlimit="10" x1="247.938" y1="452.584" x2="262" y2="444.5"/>
<path fill="none" stroke="#000000" stroke-miterlimit="10" d="M331.312,461.334c0,0,8.834-1.646,12.354,5.958
	s-6.399,10.197-5.254,10.052"/>
<path fill="none" stroke="#000000" stroke-miterlimit="10" d="M294.875,468.499c0,2.036-1.156,3.126-3.25,3.126
	s-3.25-0.644-3.25-2.68c0-2.037,1.156-3.688,3.25-3.688S294.875,466.462,294.875,468.499z"/>
<path fill="none" stroke="#000000" stroke-miterlimit="10" d="M323.293,461.334c0.843,0.561,1.301,1.605,1.301,2.635
	c0,1.792-1.765,4.125-3.594,4.125s-3.562-1.677-3.562-3.469c0-1.101,0.617-2.321,1.572-3.03"/>
</svg>
