<?xml version="1.0" encoding="utf-8"?>
<!-- Generator: Adobe Illustrator 15.1.0, SVG Export Plug-In . SVG Version: 6.00 Build 0)  -->
<!DOCTYPE svg PUBLIC "-//W3C//DTD SVG 1.1//EN" "http://www.w3.org/Graphics/SVG/1.1/DTD/svg11.dtd">
<svg version="1.1" id="Calque_2" xmlns="http://www.w3.org/2000/svg" xmlns:xlink="http://www.w3.org/1999/xlink" x="0px" y="0px"
	 width="595.28px" height="841.89px" viewBox="0 0 595.28 841.89" enable-background="new 0 0 595.28 841.89" xml:space="preserve">
<polyline fill="#EFD8DE" stroke="#000000" stroke-miterlimit="10" points="352.618,622.789 374.534,678.101 403.949,668.003 
	394.307,617.457 "/>
<path fill="#EFD8DE" stroke="#000000" stroke-miterlimit="10" d="M290.653,631.488c0,0-6.227,43.223-4.912,44.885
	c8.762,5.092,32.422,2.002,32.422,2.002s12.848-42.787,12.05-52.721"/>
<ellipse opacity="0.46" fill="#989999" cx="322.967" cy="741.219" rx="238.488" ry="18.236"/>
<path fill="#DDC84F" stroke="#000000" stroke-miterlimit="10" d="M217.469,421.435c0,0-26.585-7.335-26.895-5.451
	c-6.418,41.87,19.56,42.788,21.088,44.01c-6.724,42.787,19.254,51.038,19.254,51.038s15.587,31.784,53.178,31.784
	c37.592,0,112.774-9.006,112.774-9.006s-18.411,2.803,11.309,0c29.719-2.803,39.559-11.492,41.259-12.387
	c31.479-16.504,6.418-57.152,6.418-57.152s23.228-46.76,13.447-48.288l-20.171,9.78l-12.132-46.672l-25.766-118.333l-188.853,42.854
	L217.469,421.435z"/>
<path fill="#DBD7C4" stroke="#000000" stroke-miterlimit="10" d="M194.019,532.643l94.661-48.047l100.922-14.211l53.723,51.496
	l-21.007,35.328l-15.974-4.891l7.641-34.562l-24.45-10.682l7.335,32.533l-110.176,17.602l-1.987-30.285L200.202,550
	C200.202,550,199.297,534.236,194.019,532.643z"/>
<path fill="#EFD8DE" stroke="#000000" stroke-miterlimit="10" d="M400.995,553.107c0,0,21.6-4.025,30.207,14.568
	c8.607,18.592-15.646,24.932-12.846,24.576"/>
<path fill="#EFD8DE" stroke="#000000" stroke-miterlimit="10" d="M233.566,405.593c0,0,9.779,83.246,103.708,71.835
	c87.816-10.188,79.082-106.282,79.082-106.282l-9.549-20.625c0,0-42.944-0.552-52.621-56.786
	c-6.191,15.133-46.352,61.929-60.587,64.734c-11.224,1.656-28.758,8.92-49.234-3.916
	C250.782,381.143,233.566,405.593,233.566,405.593z"/>
<path fill="none" stroke="#000000" stroke-miterlimit="10" d="M425.903,349.969"/>
<polygon fill="#2F8C89" stroke="#000000" stroke-miterlimit="10" points="286.693,557.209 268.197,633.586 425.903,613.416 
	396.869,539.607 "/>
<path fill="none" stroke="#000000" stroke-miterlimit="10" d="M277.982,360.972"/>
<path fill="none" stroke="#000000" stroke-miterlimit="10" d="M244.364,356.149"/>
<path fill="none" stroke="#000000" stroke-miterlimit="10" d="M425.903,374.419"/>
<path fill="none" stroke="#000000" stroke-miterlimit="10" d="M425.903,349.969"/>
<g>
	<path fill="#DDBFC6" stroke="#000000" stroke-miterlimit="10" d="M354.186,295.721"/>
	<g>
		<path fill="#DDBFC6" stroke="#000000" stroke-miterlimit="10" d="M406.807,350.521"/>
	</g>
</g>
<polygon fill="#EFECD8" stroke="#000000" stroke-miterlimit="10" points="355.61,206.021 239.383,232.914 234.994,192.965 
	345.563,170.149 "/>
<polygon fill="#51BCBB" stroke="#000000" stroke-miterlimit="10" points="368.021,228.635 241.002,257.671 239.383,232.914 
	361.43,205.092 "/>
<path fill="#EAE8E8" stroke="#000000" stroke-miterlimit="10" d="M265.146,423.93l124.388-18.337c0,0,4.279,41.294-55.623,48.763
	C274.009,461.827,265.146,423.93,265.146,423.93z"/>
<path fill="#EFD8DE" stroke="#000000" stroke-miterlimit="10" d="M316.287,481.387c0,0-1.934,26.477,20.783,25.668
	c27.606-2.644,20.374-31.78,20.374-31.78"/>
<path fill="#5C484B" stroke="#000000" stroke-miterlimit="10" d="M307.977,481.879l1.588,81.006c0,0-5.908-1.631-12.836,3.057
	l-3.13-81.739"/>
<path fill="#5C484B" stroke="#000000" stroke-miterlimit="10" d="M365.391,473.887l5.525,79.859c0,0,5.63-2.83,10.472-0.639
	c1.951,2.049-3.009-81.807-3.009-81.807"/>
<path fill="#105888" stroke="#000000" stroke-miterlimit="10" d="M275.736,390.233c0-4.164-1.471-5.33-7.539-7.541
	c-4.082,1.201-7.539,3.376-7.539,7.541c0,4.162,3.375,9.044,7.539,9.044S275.736,394.395,275.736,390.233z"/>
<path fill="#105888" stroke="#000000" stroke-miterlimit="10" d="M393.508,379.092c0-4.389-2.55-7.946-6.938-7.946
	s-7.12,3.558-7.12,7.946s2.731,7.946,7.12,7.946S393.508,383.48,393.508,379.092z"/>
<path fill="none" stroke="#000000" stroke-miterlimit="10" d="M411.233,533.811"/>
<path fill="none" stroke="#000000" stroke-miterlimit="10" d="M394.675,531.467"/>
<path fill="#EFECD8" stroke="#000000" stroke-miterlimit="10" d="M254.348,737.297c0,0,48.287,0.207,54.808,0
	c-1.63-24.043,14.467-58.682,10.595-58.885c-3.871-0.203-34.023,0.408-36.878-2.039l-0.814,43.199
	C282.058,719.572,258.423,729.76,254.348,737.297z"/>
<path fill="#EFECD8" stroke="#000000" stroke-miterlimit="10" d="M369.466,680.451l16.096,57.863c0,0,49.306,1.203,51.345-0.926
	c2.039-2.131-29.746-14.355-29.746-14.355s6.299-58.295,3.26-57.252c-3.04,1.045-40.954,14.059-40.954,14.059"/>
<polyline fill="#929293" stroke="#000000" stroke-miterlimit="10" points="173.424,420.463 166.022,396.424 143.713,400.294 
	146.336,427.102 "/>
<polyline fill="#EFECD8" stroke="#000000" stroke-miterlimit="10" points="181.559,312.875 476.025,246.058 371.974,227.121 
	241.002,257.671 181.559,312.875 "/>
<polyline fill="none" stroke="#000000" stroke-miterlimit="10" points="146.336,427.102 150.844,425.967 168.829,421.435 
	173.424,420.463 "/>
<path fill="#CECECE" stroke="#000000" stroke-miterlimit="10" d="M311.906,570.627c0,4.977-2.827,7.643-7.946,7.643
	s-7.945-1.574-7.945-6.553c0-4.98,2.826-9.016,7.945-9.016S311.906,565.645,311.906,570.627z"/>
<path fill="#CECECE" stroke="#000000" stroke-miterlimit="10" d="M374.611,552.551c5.296-1.482,9.957,4.482,9.957,6.998
	c0,4.383-4.314,10.086-8.787,10.086c-4.472,0-8.71-4.1-8.71-8.48C367.071,558.463,370.847,552.74,374.611,552.551"/>
<path fill="#989999" stroke="#000000" stroke-miterlimit="10" d="M197.094,370.336l-24.449-89.846c0,0-4.28-4.482-6.521,1.02
	c-1.426,3.056,20.375,81.498,20.375,81.498s-9.576,12.022-25.468,16.083c0,0-24.653-89.43-26.895-91.061
	c-2.242-1.631-5.093-1.223-6.113,1.628c-1.02,2.853,17.522,88.427,20.171,93.033c-3.872,3.543-22.849,9.221-24.45,4.346
	c-1.427-4.346-25.672-85.357-25.672-85.357s-2.445-5.298-4.483,0.814c0.815,2.445,16.628,93.666,18.949,96.782
	c6.387,8.577,31.173,1.017,31.173,1.017l22.309-3.871C166.022,396.424,193.504,386.639,197.094,370.336"/>
<path fill="#7C3611" stroke="#000000" stroke-miterlimit="10" d="M218.896,729.549l-50.067-308.114l-17.985,4.532l53.382,303.582
	C204.226,729.549,214.006,741.775,218.896,729.549z"/>
<path fill="#EFD8DE" stroke="#000000" stroke-miterlimit="10" d="M200.202,547.555c0,9.564-8.467,16.961-18.032,16.961
	s-19.56-7.092-19.56-16.656s9.995-21.24,19.56-21.24S200.202,537.988,200.202,547.555z"/>
<path fill="#F4E25A" stroke="#000000" stroke-miterlimit="10" d="M406.807,350.521c0.148,22.676,30.192,28.571,30.192,28.571
	l-25.766-118.333l-188.853,42.854l-3.485,112.371c36.47-21.757,25.468-61.43,25.468-61.43s12.53,10.085,37.286,6.418
	c53.178-6.724,72.536-65.25,72.536-65.25S360.51,348.625,406.807,350.521z"/>
<line fill="none" stroke="#000000" stroke-miterlimit="10" x1="425.903" y1="349.969" x2="406.807" y2="350.521"/>
</svg>
