<?xml version="1.0" encoding="utf-8"?>
<!-- Generator: Adobe Illustrator 15.1.0, SVG Export Plug-In . SVG Version: 6.00 Build 0)  -->
<!DOCTYPE svg PUBLIC "-//W3C//DTD SVG 1.1//EN" "http://www.w3.org/Graphics/SVG/1.1/DTD/svg11.dtd">
<svg version="1.1" id="Calque_2" xmlns="http://www.w3.org/2000/svg" xmlns:xlink="http://www.w3.org/1999/xlink" x="0px" y="0px"
	 width="595.279px" height="841.891px" viewBox="0 0 595.279 841.891" enable-background="new 0 0 595.279 841.891"
	 xml:space="preserve">
<polyline fill="#EFD8DE" stroke="#000000" stroke-miterlimit="10" points="353.166,622.719 374.481,678.12 404.142,667.937 
	394.758,617.399 "/>
<path fill="#EFD8DE" stroke="#000000" stroke-miterlimit="10" d="M290.817,630.693c0,0-6.392,44.019-5.075,45.68
	c8.762,5.093,32.229,2,32.229,2s13.039-42.785,12.241-52.718"/>
<path fill="#D1810F" stroke="#000000" stroke-miterlimit="10" d="M217.469,421.435c0,0-26.585-7.335-26.895-5.451
	c-6.419,41.87,19.56,42.788,21.088,44.01c-6.725,42.787,19.254,51.038,19.254,51.038s15.587,31.784,53.178,31.784
	c37.592,0,112.774-9.006,112.774-9.006s-18.411,2.803,11.309,0c29.719-2.803,39.559-11.492,41.259-12.387
	c31.479-16.504,6.418-57.152,6.418-57.152s23.228-46.76,13.447-48.288l-20.171,9.78l-12.133-46.672l-25.766-118.334l-188.853,42.854
	L217.469,421.435z"/>
<path fill="#D81029" stroke="#000000" stroke-miterlimit="10" d="M194.019,532.643l94.661-48.047l100.922-14.211l53.723,51.496
	l-21.007,35.327l-15.974-4.891l7.641-34.562l-24.449-10.683l7.335,32.533l-110.177,17.602l-1.986-30.284L200.202,550
	C200.202,550,199.297,534.236,194.019,532.643z"/>
<path fill="#EFD8DE" stroke="#000000" stroke-miterlimit="10" d="M400.995,553.107c0,0,21.6-4.025,30.206,14.568
	c8.607,18.592-15.646,24.932-12.846,24.576"/>
<path fill="#EFD8DE" stroke="#000000" stroke-miterlimit="10" d="M233.566,405.594c0,0,9.779,83.246,103.708,71.835
	c87.816-10.188,79.082-106.282,79.082-106.282l-9.549-20.625c0,0-42.944-0.552-52.621-56.786
	c-6.19,15.133-21.712,51.377-60.587,64.734c-21.959,1.809-28.758,8.92-49.234-3.916
	C250.782,381.143,233.566,405.594,233.566,405.594z"/>
<path fill="none" stroke="#000000" stroke-miterlimit="10" d="M425.903,349.969"/>
<polygon fill="#911824" stroke="#000000" stroke-miterlimit="10" points="286.693,557.209 268.197,633.587 425.903,613.416 
	396.869,539.607 "/>
<path fill="none" stroke="#000000" stroke-miterlimit="10" d="M277.982,360.972"/>
<path fill="none" stroke="#000000" stroke-miterlimit="10" d="M244.364,356.149"/>
<path fill="none" stroke="#000000" stroke-miterlimit="10" d="M425.903,374.42"/>
<path fill="none" stroke="#000000" stroke-miterlimit="10" d="M425.903,349.969"/>
<g>
	<path fill="#DDBFC6" stroke="#000000" stroke-miterlimit="10" d="M354.186,295.721"/>
	<g>
		<path fill="#DDBFC6" stroke="#000000" stroke-miterlimit="10" d="M406.807,350.521"/>
	</g>
</g>
<polygon fill="#D81029" stroke="#000000" stroke-miterlimit="10" points="355.61,206.021 239.383,232.914 234.994,192.965 
	345.563,170.149 "/>
<polygon fill="#911824" stroke="#000000" stroke-miterlimit="10" points="368.021,228.635 241.002,257.671 239.383,232.914 
	361.43,205.092 "/>
<path fill="#EAE8E8" stroke="#000000" stroke-miterlimit="10" d="M265.146,423.93l124.389-18.337c0,0,4.278,41.294-55.623,48.763
	C274.009,461.827,265.146,423.93,265.146,423.93z"/>
<path fill="#EFD8DE" stroke="#000000" stroke-miterlimit="10" d="M316.287,481.387c0,0-1.935,26.477,20.782,25.668
	c27.606-2.645,20.374-31.78,20.374-31.78"/>
<path fill="#5C484B" stroke="#000000" stroke-miterlimit="10" d="M307.977,481.88l1.588,81.006c0,0-5.907-1.631-12.836,3.057
	l-3.13-81.739"/>
<path fill="#5C484B" stroke="#000000" stroke-miterlimit="10" d="M365.391,473.887l5.525,79.858c0,0,5.63-2.83,10.472-0.639
	c1.951,2.049-3.009-81.807-3.009-81.807"/>
<path fill="#105888" stroke="#000000" stroke-miterlimit="10" d="M275.736,390.233c0-4.164-1.471-5.33-7.539-7.541
	c-4.082,1.201-7.538,3.376-7.538,7.541c0,4.162,3.375,9.044,7.538,9.044C272.361,399.277,275.736,394.395,275.736,390.233z"/>
<path fill="#105888" stroke="#000000" stroke-miterlimit="10" d="M393.508,379.093c0-4.39-2.55-7.946-6.938-7.946
	c-4.388,0-7.119,3.558-7.119,7.946c0,4.388,2.73,7.945,7.119,7.945C390.959,387.038,393.508,383.48,393.508,379.093z"/>
<path fill="none" stroke="#000000" stroke-miterlimit="10" d="M411.233,533.811"/>
<path fill="none" stroke="#000000" stroke-miterlimit="10" d="M394.675,531.468"/>
<path fill="#603F3E" stroke="#000000" stroke-miterlimit="10" d="M254.348,737.298c0,0,48.287,0.207,54.808,0
	c-1.63-24.043,14.468-58.683,10.596-58.886c-3.871-0.203-34.023,0.408-36.878-2.039l-0.814,43.199
	C282.058,719.572,258.423,729.76,254.348,737.298z"/>
<path fill="#603F3E" stroke="#000000" stroke-miterlimit="10" d="M369.466,680.451l16.096,57.863c0,0,49.306,1.203,51.345-0.926
	c2.039-2.131-29.745-14.355-29.745-14.355s6.299-58.295,3.26-57.252c-3.04,1.045-40.954,14.06-40.954,14.06"/>
<polyline fill="#474747" stroke="#000000" stroke-miterlimit="10" points="173.424,420.464 166.022,396.425 143.713,400.295 
	146.336,427.102 "/>
<polyline fill="#D81029" stroke="#000000" stroke-miterlimit="10" points="181.559,312.875 476.025,246.058 371.974,227.121 
	241.002,257.671 181.559,312.875 "/>
<polyline fill="none" stroke="#000000" stroke-miterlimit="10" points="146.336,427.102 150.844,425.968 168.829,421.435 
	173.424,420.464 "/>
<path fill="#CECECE" stroke="#000000" stroke-miterlimit="10" d="M311.906,570.628c0,4.977-2.826,7.643-7.945,7.643
	s-7.945-1.574-7.945-6.553c0-4.98,2.826-9.017,7.945-9.017S311.906,565.645,311.906,570.628z"/>
<path fill="#CECECE" stroke="#000000" stroke-miterlimit="10" d="M374.611,552.552c5.296-1.482,9.957,4.481,9.957,6.998
	c0,4.383-4.313,10.086-8.787,10.086c-4.472,0-8.71-4.101-8.71-8.48C367.071,558.464,370.847,552.74,374.611,552.552"/>
<path fill="#888989" stroke="#000000" stroke-miterlimit="10" d="M197.094,370.337l-24.449-89.847c0,0-4.28-4.482-6.521,1.02
	c-1.427,3.057,20.375,81.499,20.375,81.499s-9.576,12.021-25.469,16.083c0,0-24.652-89.431-26.895-91.062s-5.093-1.223-6.113,1.628
	c-1.02,2.854,17.522,88.428,20.171,93.033c-3.872,3.543-22.849,9.221-24.449,4.346c-1.428-4.346-25.673-85.356-25.673-85.356
	s-2.444-5.299-4.482,0.813c0.814,2.445,16.628,93.666,18.949,96.782c6.387,8.577,31.173,1.018,31.173,1.018l22.309-3.871
	C166.022,396.425,193.504,386.639,197.094,370.337"/>
<path fill="#3E1011" stroke="#000000" stroke-miterlimit="10" d="M218.896,729.55l-50.066-308.114l-17.985,4.532l53.382,303.582
	C204.226,729.55,214.006,741.775,218.896,729.55z"/>
<path fill="#EFD8DE" stroke="#000000" stroke-miterlimit="10" d="M200.202,547.555c0,9.563-8.468,16.961-18.032,16.961
	c-9.565,0-19.561-7.092-19.561-16.656c0-9.563,9.995-21.24,19.561-21.24C191.735,526.62,200.202,537.988,200.202,547.555z"/>
<path fill="#F3A70F" stroke="#000000" stroke-miterlimit="10" d="M406.807,350.521c0.148,22.676,30.191,28.571,30.191,28.571
	l-25.766-118.334L222.38,303.613l-3.485,112.371c36.471-21.757,25.468-61.43,25.468-61.43s12.53,10.085,37.286,6.418
	c53.179-6.725,72.536-65.25,72.536-65.25S360.51,348.625,406.807,350.521z"/>
<line fill="none" stroke="#000000" stroke-miterlimit="10" x1="425.903" y1="349.969" x2="406.807" y2="350.521"/>
</svg>
